<svg xmlns="http://www.w3.org/2000/svg" xml:space="preserve" width="281.643" height="51.337" style="shape-rendering:geometricPrecision;text-rendering:geometricPrecision;image-rendering:optimizeQuality;fill-rule:evenodd;clip-rule:evenodd" viewBox="0 0 7452 1358"><g><g><path d="M1129 816c-25 13-49 13-62 0-25-12-37-49-37-99V580c0-63-25-112-75-125-75-25-125 75-150 112L668 779V517c0-62-12-99-50-112-24 0-62 0-99 50L220 929c-38-75-62-162-62-237 0-287 236-523 510-523 287 0 511 236 511 523 0 50-12 100-50 124zm162-124v-13c0-336-274-622-623-622C332 57 45 343 45 692c0 337 287 623 623 623 162 0 312-62 424-162 25-25 25-62 0-87-12-25-50-25-75 0-100 87-224 137-349 137-149 0-286-62-374-175l262-423v199c0 100 38 125 62 137 38 0 88 0 137-75l138-236c12-13 12-25 12-25v125c0 86 37 149 100 186 62 38 124 25 187 0 74-50 112-137 99-224zm872-224c13 12 26 37 26 49 0 26-26 50-50 50h-25c-25-24-75-37-112-37-112 0-175 87-175 187 0 112 63 187 175 187 49 0 99-13 124-50 13-12 25-12 37-12 26 0 50 24 50 49s-12 38-24 50c-50 38-125 62-187 62-163 0-287-124-287-286s124-299 287-299c62 0 112 25 161 50zm287 124c112 0 199 87 199 212 0 112-87 199-199 199s-212-87-212-199c0-125 100-212 212-212zm0 312c50 0 87-38 87-100s-37-100-87-100-100 38-100 100 50 100 100 100zm274 37V655c0-25 25-50 50-50 38 0 62 25 62 50v286c0 38-24 62-62 62-25 0-50-24-50-62zm-12-449c0-37 25-74 62-74 38 0 62 37 62 74 0 38-24 63-62 63-37 0-62-25-62-63zm336 300v149c0 38-25 62-62 62-25 0-50-24-50-62V642c0-25 12-37 37-37 26 0 50 12 50 37 50-37 88-50 125-50 112 0 162 87 162 187v162c0 38-25 62-62 62-25 0-50-24-50-62V792c0-50-13-100-75-100-50 0-75 50-75 100zm623 62c-12 0-25-12-25-25l-137-137v249c0 38-25 62-50 62-37 0-62-24-62-62V443c13-13 13-13 25-13s12 13 25 13l212 236 12 13s12-13 25-13l199-236c13 0 26-13 26-13 12 0 24 0 24 13v498c0 38-24 62-50 62-37 0-62-24-62-62V692l-124 137c-13 13-26 25-38 25zm549 50c49 0 86-38 86-100s-49-100-86-100c-50 0-100 38-100 100 0 50 50 100 100 100zm112 50v-13c-26 50-88 62-138 62-99 0-186-87-186-199 0-125 87-212 199-212 13 0 75 0 125 63v-13c0-25 25-50 49-50 25 0 38 25 38 50v312c0 25-13 49-38 49-24 0-49-24-49-49zm398-262h-12c-75 12-87 50-87 100v149c0 38-26 62-50 62-38 0-62-24-62-62V642c0-25 24-37 49-37s37 12 37 37c51-37 75-50 113-50h12c25 0 50 25 50 50 0 37-25 50-50 50zm436 224c0 13 13 25 13 25 0 38-25 62-63 62-12 0-37-12-49-37l-125-150v125c0 38-25 62-62 62-25 0-50-24-50-62V480c0-25 25-50 50-50 37 0 62 25 62 50v287l125-137c12-13 25-38 49-38 26 0 50 25 50 63v24l-99 113 99 124zm225-212c-38 0-88 13-88 63h163c0-50-51-63-75-63zm137 125h-225c0 75 63 87 100 87 12 0 50-12 75-12 0-13 12-13 25-13 25 0 50 25 50 50 0 13-13 25-25 38-38 24-87 24-125 24-112 0-212-49-212-199 0-112 63-212 187-212 112 0 200 75 200 200 0 24-25 37-50 37zm324 174h-38c-87 0-137-37-137-161V692h-25c-25 0-50-13-50-50 0-25 25-50 50-50h25V492c0-37 25-62 63-62 25 0 49 25 49 62v100h50c25 0 50 25 50 50 0 37-25 50-50 50h-50v124c0 75 13 88 38 88h25c25 0 49 25 49 50s-24 49-49 49zm536-535c12 12 37 37 37 49 0 26-25 50-62 50h-13c-37-24-75-37-125-37-99 0-174 87-174 187 0 112 75 187 174 187 50 0 100-13 138-50 12-12 12-12 25-12 37 0 49 24 49 49s-12 38-25 50c-49 38-112 62-187 62-149 0-286-124-286-286s137-299 286-299c63 0 125 25 163 50zm286 436c50 0 100-38 100-100s-50-100-100-100-87 38-87 100c0 50 37 100 87 100zm125 50v-13c-25 50-100 62-137 62-112 0-187-87-187-199 0-125 75-212 187-212 25 0 87 0 137 63v-13c0-25 12-50 37-50s50 25 50 50v312c0 25-25 49-50 49s-37-24-37-49zm398-50c50 0 88-50 88-100 0-62-50-100-88-100-50 0-99 38-99 100s49 100 99 100zm-99 75v136c0 38-25 63-50 63-38 0-62-25-62-63V642c0-25 24-37 49-37 26 0 38 12 38 37 37-37 87-50 137-50 100 0 187 87 187 212 0 112-75 199-187 199-37 0-75 0-112-24z" style="fill:#fefefe"/></g></g></svg>