<svg width="1080" height="440" viewBox="0 0 1080 440" fill="none" xmlns="http://www.w3.org/2000/svg"><path fill-rule="evenodd" clip-rule="evenodd" d="M208.916 80.298 139.277 27.9V392.32l34.886 23.841L209.048 440l-.132-359.702zM0 6.943l118.399 75.582v294.599l-70.828-46.109V82.655L0 6.944zM341.19 0 229.795 81.608v225.698l68.978-47.419V81.607L341.19 0z" fill="#fff"/><path fill-rule="evenodd" clip-rule="evenodd" d="M208.916 80.298 139.277 27.9V392.32l34.886 23.841L209.048 440l-.132-359.702zM0 6.943l118.399 75.582v294.599l-70.828-46.109V82.655L0 6.944zM341.19 0 229.795 81.608v225.698l68.978-47.419V81.607L341.19 0z" fill="url(#a)"/><path d="M459.443 101.135h17.916l10.661 73.429h1.333l10.513-73.429h18.064v77.271h-8.884v-73.282h-1.333L497.2 178.406h-17.028l-10.66-73.282h-1.333v73.282h-8.736v-77.271zM551.097 101.135v51.268c0 6.205 1.481 11.08 4.442 14.183 2.962 3.103 7.404 4.728 13.178 4.728 5.775 0 10.069-1.625 13.03-4.728 2.962-3.25 4.442-7.978 4.442-14.183v-51.268h9.477v51.268c0 9.012-2.369 15.808-7.256 20.536-4.738 4.728-11.401 7.092-19.693 7.092-8.44 0-14.955-2.364-19.693-7.092-4.738-4.728-7.255-11.524-7.255-20.536v-51.268h9.328zM664.073 174.564h1.332v-73.429h9.477v77.271h-18.953l-22.654-73.282h-1.333v73.282h-9.476v-77.271h18.804l22.803 73.429zM727 169.837c3.406 0 6.367-.296 8.884-1.035a13.92 13.92 0 0 0 6.219-3.25c1.629-1.625 2.813-3.694 3.554-6.353.888-2.66 1.184-6.058 1.184-10.047v-18.616c0-3.989-.444-7.387-1.184-10.046-.741-2.66-1.925-4.728-3.554-6.353-1.629-1.626-3.702-2.807-6.219-3.398a38.601 38.601 0 0 0-8.884-1.035h-8.292v60.133H727zm-24.579-68.702h25.764c9.772 0 16.879 2.216 21.321 6.796 4.443 4.58 6.812 11.82 6.812 21.867v19.945c0 10.047-2.221 17.286-6.812 21.866-4.442 4.581-11.549 6.797-21.321 6.797h-25.764v-8.717h6.811v-59.985h-6.811v-8.569zM791.116 101.135v51.268c0 6.205 1.481 11.08 4.442 14.183 2.961 3.103 7.403 4.728 13.178 4.728 5.775 0 10.069-1.625 13.03-4.728 2.961-3.25 4.442-7.978 4.442-14.183v-51.268h9.477v51.268c0 9.012-2.37 15.808-7.256 20.536-4.738 4.728-11.401 7.092-19.693 7.092-8.44 0-14.955-2.364-19.693-7.092-4.738-4.728-7.255-11.524-7.255-20.536v-51.268h9.328zM907.201 123.445c0-2.511-.593-4.728-1.629-6.648-1.037-1.921-2.369-3.546-3.998-4.728-1.777-1.182-3.702-2.216-5.923-2.807-2.221-.591-4.59-1.034-7.107-1.034-2.221 0-4.294.295-6.219.886-1.925.443-3.702 1.33-5.33 2.364a12.537 12.537 0 0 0-3.554 3.841c-.888 1.478-1.333 3.251-1.333 5.171v.591c0 2.069.445 3.989 1.333 5.467.888 1.477 2.221 2.807 3.998 3.841 1.777 1.035 3.998 1.921 6.663 2.66 2.665.591 5.627 1.182 9.18 1.773 8.292 1.182 14.363 3.693 18.213 7.239 3.849 3.398 5.774 8.126 5.774 14.036v1.33c0 3.25-.592 6.353-1.776 9.16-1.185 2.659-2.814 5.023-5.183 7.092-2.221 1.92-5.034 3.545-8.44 4.58-3.405 1.034-7.255 1.625-11.697 1.625-5.035 0-9.477-.739-13.326-2.069-3.85-1.477-7.108-3.398-9.625-5.909-2.517-2.512-4.442-5.615-5.774-9.013-1.333-3.398-2.073-7.239-2.073-11.228v-3.251h9.476v2.66c0 6.796 1.925 11.819 5.627 15.217 3.849 3.398 9.032 5.024 15.843 5.024 5.775 0 10.217-1.182 13.178-3.694 2.961-2.512 4.442-5.91 4.442-10.194v-.591c0-3.989-1.481-7.092-4.59-9.308-2.961-2.069-7.848-3.694-14.659-4.58-3.998-.444-7.551-1.33-10.809-2.364-3.109-1.034-5.775-2.512-8.144-4.137-2.221-1.773-3.998-3.842-5.182-6.353-1.185-2.364-1.777-5.319-1.777-8.569v-1.33c0-2.955.592-5.762 1.925-8.274 1.333-2.511 2.961-4.728 5.33-6.501 2.37-1.772 5.035-3.25 8.144-4.136 3.258-1.035 6.811-1.478 10.513-1.478 4.442 0 8.292.591 11.846 1.921 3.553 1.182 6.515 2.955 8.884 5.023a20.119 20.119 0 0 1 5.33 7.387c1.333 2.808 1.925 5.762 1.925 8.865v4.58h-9.476v-4.137z" fill="#fff"/><path d="M507.12 289.211c0-2.511-.592-4.727-1.629-6.648-1.036-1.921-2.369-3.546-3.998-4.728-1.776-1.182-3.701-2.216-5.922-2.807-2.221-.739-4.59-1.034-7.108-1.034-2.221 0-4.294.295-6.218.886-1.925.591-3.702 1.33-5.331 2.364-1.481 1.034-2.665 2.364-3.554 3.842-.888 1.477-1.332 3.25-1.332 5.171v.591c0 2.068.444 3.989 1.332 5.466.889 1.478 2.221 2.807 3.998 3.841 1.777 1.035 3.998 1.921 6.663 2.66 2.666.591 5.627 1.182 9.181 1.773 8.291 1.182 14.362 3.693 18.212 7.239 3.85 3.398 5.775 8.126 5.775 14.036v1.33c0 3.25-.593 6.353-1.777 9.16-1.185 2.659-2.813 5.023-5.182 7.092-2.221 1.92-5.035 3.546-8.44 4.58-3.406 1.034-7.256 1.625-11.698 1.625-5.034 0-9.476-.739-13.326-2.068-3.85-1.478-7.107-3.399-9.624-5.91-2.518-2.512-4.442-5.615-5.775-9.013-1.333-3.398-2.073-7.239-2.073-11.228v-3.251h9.476v2.66c0 6.796 1.925 11.819 5.627 15.217 3.85 3.399 9.032 5.024 15.843 5.024 5.775 0 10.217-1.182 13.178-3.694 2.962-2.511 4.442-5.91 4.442-10.194v-.739c0-3.989-1.48-7.092-4.59-9.308-2.961-2.068-7.847-3.694-14.658-4.58-3.998-.443-7.552-1.33-10.809-2.364-3.11-1.034-5.775-2.512-8.144-4.137-2.221-1.773-3.998-3.841-5.183-6.353-1.184-2.364-1.776-5.319-1.776-8.569v-1.33c0-2.955.592-5.762 1.924-8.273 1.333-2.512 2.962-4.728 5.331-6.501 2.369-1.773 5.034-3.25 8.144-4.137 3.257-1.034 6.811-1.477 10.513-1.477 4.442 0 8.291.591 11.845 1.92 3.554 1.182 6.515 2.955 8.884 5.024a20.124 20.124 0 0 1 5.331 7.387c1.332 2.807 1.924 5.762 1.924 8.864v4.581h-9.476v-3.99zM544.879 265.921h47.53v8.57h-38.201v25.707h37.609v8.569h-37.609v25.856h38.942v8.569h-48.271v-77.271zM649.115 336.099c3.258 0 5.923-.443 8.144-1.477 2.369-1.034 4.146-2.512 5.627-4.285 1.48-1.773 2.517-3.841 3.257-6.205.741-2.364 1.185-4.876 1.185-7.387v-1.33h9.476v1.33c0 3.841-.592 7.535-1.777 11.081-1.184 3.398-2.961 6.353-5.33 9.012-2.369 2.512-5.183 4.433-8.588 5.91-3.406 1.33-7.404 2.068-11.846 2.068-8.736 0-15.399-2.659-20.285-8.126-4.886-5.318-7.255-13.149-7.255-23.491v-17.286c0-10.047 2.369-17.73 7.255-23.344 4.886-5.466 11.697-8.274 20.285-8.274 4.442 0 8.44.739 11.846 2.217 3.405 1.329 6.367 3.398 8.588 5.909 2.369 2.512 4.146 5.467 5.33 9.013 1.185 3.398 1.777 7.092 1.777 10.933v1.33h-9.476v-1.33c-.148-2.512-.444-4.876-1.185-7.24-.74-2.363-1.777-4.432-3.257-6.205-1.481-1.773-3.258-3.25-5.479-4.284-2.221-1.035-5.034-1.626-8.144-1.626-6.07 0-10.661 2.216-13.77 6.501-2.961 4.285-4.442 10.047-4.442 17.139v15.956c0 7.535 1.481 13.445 4.442 17.582 2.961 3.841 7.552 5.909 13.622 5.909zM711.16 266.909v51.267c0 6.205 1.481 11.081 4.442 14.184 2.961 3.102 7.403 4.727 13.178 4.727 5.775 0 10.069-1.625 13.03-4.727 2.961-3.251 4.442-7.979 4.442-14.184v-51.267h9.476v51.267c0 9.013-2.369 15.809-7.255 20.537-4.738 4.727-11.401 7.091-19.693 7.091-8.44 0-14.955-2.364-19.693-7.091-4.738-4.728-7.255-11.524-7.255-20.537v-51.267h9.328zM793.19 303.697h17.472c5.33 0 9.18-1.034 11.845-3.25 2.665-2.216 3.998-5.615 3.998-9.899v-2.069c0-3.841-1.333-7.091-3.998-9.455-2.517-2.364-6.515-3.694-11.845-3.694H793.19v28.367zm39.978 40.482h-9.476v-25.855c0-1.921-.445-3.398-1.333-4.432-.888-1.035-2.517-1.478-4.738-1.478H793.19v31.765h-9.477v-77.27h28.133c3.998 0 7.552.591 10.513 1.773 2.961 1.034 5.479 2.659 7.403 4.58 2.073 1.92 3.554 4.137 4.442 6.796 1.037 2.512 1.629 5.171 1.629 7.978v3.251c0 2.807-.888 5.762-2.517 8.569-1.629 2.807-3.998 5.023-7.403 6.648v1.33c2.221.295 3.997 1.182 5.33 2.659 1.333 1.33 1.925 3.399 1.925 5.91v27.776zM863.667 266.909h49.899v8.569h-20.285v60.132h20.285v8.569h-49.899v-8.569h20.285v-60.132h-20.285v-8.569zM940.962 266.909h55.229v8.569h-22.802v68.701h-9.477v-68.701h-22.95v-8.569zM1043.87 316.994h-2.07l-24.58-50.085h10.66l19.99 42.107h1.33l20.14-42.107H1080l-24.73 50.085h-1.92v27.185h-9.48v-27.185z" fill="#D0CEFF"/><defs><linearGradient id="a" x1="170.595" y1="0" x2="170.595" y2="440" gradientUnits="userSpaceOnUse"><stop stop-color="#BFD1FF"/><stop offset="1" stop-color="#769DFF"/></linearGradient></defs></svg>