<svg width="288" height="288" xmlns="http://www.w3.org/2000/svg" xmlns:xlink="http://www.w3.org/1999/xlink" xmlns:svgjs="http://svgjs.com/svgjs"><g><svg xmlns="http://www.w3.org/2000/svg" width="288" height="288" viewBox="0 0 216 64"><path fill="#1b1c2c" d="M.21 56.36c0-15.801 0-31.598.075-47.489.219-.262.41-.414.5-.605 1.836-3.93 4.996-6.454 9.52-7.559.355-.086.66-.34.988-.516 64.266 0 128.535 0 192.91.07.215.145.309.262.426.282 5.84 1.148 9.476 4.41 11.09 9.629.082.258.324.48.492.719 0 14.332 0 28.664-.082 43.097-.156.192-.285.282-.305.387-.906 4.27-3.586 7.293-7.781 9.258-.246.117-.414.37-.617.558-66.219 0-132.442 0-198.762-.066-.14-.121-.168-.2-.219-.219-3.683-1.43-6.242-3.87-7.82-7.207-.066-.144-.273-.23-.414-.34M53.75 46.312c0-2.003-.043-4.011.031-6.015.016-.48.282-1.059.649-1.406 1.925-1.84 3.918-3.621 5.886-5.422.239-.219.454-.45.774-.77-2.254-2.031-4.461-3.972-6.59-5.98-.406-.383-.703-1.035-.719-1.57-.07-2.512-.023-5.028-.027-7.544 0-.238-.035-.476-.055-.687-.164-.04-.23-.066-.3-.066-2.926-.008-5.852.02-8.778-.043-.555-.012-1.226-.258-1.625-.606-2.02-1.758-3.98-3.57-5.922-5.394-.543-.508-.89-.512-1.437.004-1.914 1.804-3.899 3.554-5.813 5.359-.531.504-1.086.687-1.84.68-2.683-.036-5.363-.016-8.047-.012-.367 0-.734.035-1.125.055v4.207c0 1.367-.027 2.738.012 4.105.02.723-.238 1.258-.812 1.766-1.899 1.683-3.73 3.433-5.637 5.109-.594.523-.629.832-.016 1.371a171.644 171.644 0 0 1 5.75 5.277c.383.368.649.98.672 1.493.082 1.715.032 3.437.032 5.156v3.332c2.199 0 4.335.176 6.425-.043 2.79-.29 4.84.512 6.586 2.504 1.317 1.5 2.95 2.766 4.492 4.183.332-.28.586-.488.825-.707 1.875-1.707 3.777-3.39 5.605-5.144.637-.61 1.3-.824 2.2-.809 2.542.047 5.085.016 7.628.016h1.176v-2.398m110.8-16.356c-.179-1.406-1.273-.32-2.023-.824v5.644c-1.324-1.718-2.504-3.16-3.574-4.672-.535-.761-1.144-1-2.062-.734v8.988h1.933v-5.105a34.646 34.646 0 0 1 3.453 4.2c.563.808 1.176 1.179 2.274.835v-8.332m-43.274 7.79c1.946-1.337 2.555-3.122 1.97-5.224-.52-1.882-2.302-3.18-4.43-3.378-2.137-.2-4.083.742-5.114 2.472-1.078 1.813-.691 4.149.934 5.613 1.746 1.579 4.12 1.793 6.64.516m-38.316-.98v-1.391c.969-.273 1.637-.14 2.008.723.148.351.406.664.613.992.926 1.469.926 1.469 2.902 1.21-.703-1.1-1.386-2.183-2.082-3.28.278-.184.512-.32.72-.485.937-.754 1.32-1.71 1.081-2.824-.238-1.117-.98-2.027-2.172-2.211-1.648-.254-3.351-.203-5.015-.285v9.12h1.945v-1.57m93.61-6.613v8.203h6.132v-1.699h-4.086v-2.043h3.656v-1.687h-3.648v-1.942h3.996v-1.707c-1.855 0-3.625.02-5.398-.011-.618-.008-.692.28-.653.886m-25.304 4.657 3.668-.258v-1.625h-3.664V31.02h4.02v-1.665h-5.946v9.016h6.039V36.68h-4.156c0-.602 0-1.137.039-1.871m21.41 1.648c-2.38.93-4.637-.16-4.774-2.305-.093-1.402.547-2.527 1.711-3.007 1.39-.579 2.852-.243 4.16.98.508-.277 1.032-.563 1.551-.848-1.222-1.832-3.605-2.59-5.875-1.933-2.254.656-3.683 2.574-3.535 4.742.164 2.32 1.8 4.043 4.227 4.445 2.129.348 4.347-.562 5.132-2.148l-1.484-.785c-.36.285-.668.527-1.113.859m-25.043.531c.129-.18.258-.355.41-.562l-1.555-.82c-1.863 1.5-3.797 1.617-5.09.34-1.152-1.141-1.117-3.16.07-4.258 1.31-1.204 3.321-1.047 5.016.425.512-.277 1.032-.562 1.559-.847-1.36-1.871-3.703-2.594-5.988-1.903-1.957.594-3.305 2.184-3.426 4.04-.14 2.152.953 3.964 2.883 4.769 2.043.851 4.308.45 6.12-1.184M70.786 31.75c-.508 1.086-.629 2.2-.32 3.355.488 1.848 2.238 3.243 4.367 3.461 2.078.215 4.012-.64 4.844-2.168-.5-.273-1.004-.543-1.504-.812-1.723 1.488-3.645 1.652-4.988.437-1.2-1.09-1.211-3.234-.028-4.343 1.262-1.18 3.301-1.012 5.024.441.507-.281 1.027-.57 1.554-.86-2.273-3.034-6.773-2.812-8.949.489m34.266-.734c-1.227-1.703-3.817-2.309-6.793-1.575v8.926h1.972v-2.875c1.02-.078 2.032.031 2.852-.277.77-.29 1.602-.914 1.922-1.586.34-.707.105-1.645.047-2.613m-11.54 1.011c-.175.32-.35.641-.577 1.051-.5-.867-.942-1.621-1.368-2.383-.867-1.566-.863-1.566-2.937-1.324 1.441 2.918 4.293 5.375 3.21 8.988h2.169c-.649-2.52.332-4.625 1.793-6.629.543-.746.965-1.57 1.476-2.414-2.125-.09-2.125-.09-3.054 1.497-.211.363-.418.73-.711 1.214m12.547-2.746c-.145.551-.29 1.098-.457 1.758h2.785v7.29h2.05v-7.345h2.555v-1.707c-2.305 0-4.527 0-6.933.004m24.28 1.602v-1.535h-1.901v9h5.644V36.66h-3.742v-5.777m6.867 2.074v-3.621h-1.86v9.008h1.86v-5.387zm0 0" class="color232746 svgShape"/><path d="M216.21 10.8c-.167-.148-.41-.37-.491-.628-1.614-5.219-5.25-8.48-11.09-9.629-.117-.02-.211-.137-.328-.281 3.945-.07 7.906-.07 11.91-.07V10.8zM11.196.192c-.23.176-.535.43-.89.516C5.78 1.813 2.62 4.336.785 8.266c-.09.191-.281.343-.5.52C.211 5.933.211 3.081.211.19h10.984zm196.328 64c.106-.187.274-.441.52-.558 4.195-1.965 6.875-4.988 7.781-9.258.02-.105.149-.195.305-.3.082 3.35.082 6.71.082 10.116h-8.688zM.211 56.45c.14.02.348.106.414.25 1.578 3.336 4.137 5.778 7.82 7.207.051.02.078.098.121.219-2.765.066-5.539.066-8.355.066V56.45zm0 0" fill="#1b1c2c" class="color000 svgShape"/><path fill="#d09854" d="M53.75 46.406v2.305h-1.176c-2.543 0-5.086.031-7.629-.016-.898-.015-1.562.2-2.199.809-1.828 1.754-3.73 3.437-5.605 5.144-.239.22-.493.426-.825.707-1.543-1.417-3.175-2.683-4.492-4.183-1.746-1.992-3.797-2.793-6.586-2.504-2.09.219-4.226.043-6.425.043v-3.332c0-1.719.05-3.441-.032-5.156-.023-.512-.289-1.125-.672-1.493a171.644 171.644 0 0 0-5.75-5.277c-.613-.539-.578-.848.016-1.371 1.906-1.676 3.738-3.426 5.637-5.11.574-.507.832-1.042.812-1.765-.039-1.367-.012-2.738-.012-4.105v-4.207c.391-.02.758-.055 1.125-.055 2.684-.004 5.364-.024 8.047.012.754.007 1.309-.176 1.84-.68 1.914-1.805 3.899-3.555 5.813-5.36.547-.515.894-.511 1.437-.003 1.942 1.824 3.903 3.636 5.922 5.394.399.348 1.07.594 1.625.606 2.926.062 5.852.035 8.777.043.07 0 .137.027.301.066.02.21.055.45.055.687.004 2.516-.043 5.032.027 7.543.016.536.313 1.188.719 1.57 2.129 2.009 4.336 3.95 6.59 5.981-.32.32-.535.551-.774.77-1.968 1.8-3.96 3.582-5.886 5.422-.367.347-.633.925-.649 1.406-.074 2.004-.031 4.012-.031 6.11m-23.852-.243c.399.227.864.39 1.188.684 1.73 1.558 3.422 3.148 5.168 4.765.351-.293.613-.5.855-.722 1.465-1.36 2.895-2.754 4.418-4.059.426-.363 1.125-.617 1.711-.637 2.157-.078 4.317-.062 6.477-.015.918.02 1.2-.274 1.172-1.11a87.809 87.809 0 0 1 .008-5.914c.02-.484.277-1.062.636-1.418 1.512-1.492 3.09-2.93 4.68-4.36.512-.46.539-.78.008-1.25-1.528-1.35-2.989-2.757-4.52-4.1-.597-.524-.87-1.071-.851-1.84.054-1.973 0-3.946.03-5.918.013-.618-.214-.852-.898-.836-1.324.035-2.667-.13-3.964.039-2.668.34-4.68-.434-6.305-2.391-.957-1.152-2.156-2.133-3.297-3.242-1.945 1.781-3.66 3.406-5.453 4.953-.402.348-1.063.605-1.613.621-2.192.07-4.387.055-6.582.016-.77-.012-1.036.203-1.016.922.047 2.035.05 4.074-.012 6.109-.015.45-.261.992-.601 1.32a141.558 141.558 0 0 1-4.715 4.328c-.547.485-.598.805-.016 1.313 1.559 1.363 3.035 2.805 4.598 4.168.578.508.793 1.039.777 1.762-.047 1.941.016 3.882-.031 5.824-.02.746.238 1.011 1.066 1 2.297-.035 4.594-.012 7.082-.012zm0 0" class="colord09854 svgShape"/><path fill="#f9f9fa" d="M164.55 30.047v8.242c-1.097.344-1.71-.027-2.273-.836a34.646 34.646 0 0 0-3.453-4.2v5.106h-1.933v-8.988c.918-.266 1.527-.027 2.062.734 1.07 1.512 2.25 2.954 3.574 4.672v-5.644c.75.504 1.844-.582 2.024.914zm-43.335 7.742c-2.457 1.234-4.832 1.02-6.578-.559-1.625-1.464-2.012-3.8-.934-5.613 1.031-1.73 2.977-2.672 5.113-2.472 2.13.199 3.91 1.496 4.43 3.378.586 2.102-.023 3.887-2.031 5.266m-3.137-.953c.277-.02.559-.016.828-.063 1.692-.312 2.7-1.574 2.574-3.199-.117-1.484-1.351-2.594-2.968-2.672-1.801-.086-3.07.828-3.39 2.442-.34 1.715.687 3.004 2.956 3.492zm0 0" class="colorf9f9fa svgShape"/><path fill="#f6f6f7" d="M82.96 36.86v1.476h-1.944v-9.121c1.664.082 3.367.031 5.015.285 1.192.184 1.934 1.094 2.172 2.21.238 1.114-.144 2.071-1.082 2.825-.207.164-.441.3-.719.485.696 1.097 1.38 2.18 2.082 3.28-1.976.259-1.976.259-2.902-1.21-.207-.328-.465-.64-.613-.992-.371-.864-1.04-.996-2.008-.723v1.484m3.07-5.32c-.836-.953-1.957-.441-3.023-.574v2.687c.555 0 1.066.004 1.574-.004 1.414-.015 1.941-.703 1.45-2.109zm0 0" class="colorf6f6f7 svgShape"/><path fill="#f5f5f6" d="M176.57 30.066c-.039-.52.035-.808.653-.8 1.773.03 3.543.011 5.398.011v1.707h-3.996v1.942h3.648v1.687h-3.656v2.043h4.086v1.7h-6.133v-8.29zm0 0" class="colorf5f5f6 svgShape"/><path fill="#fafafb" d="M151.246 34.91c-.02.633-.02 1.168-.02 1.77h4.157v1.691h-6.04v-9.016h5.946v1.665h-4.02v1.906h3.665v1.625c-1.223.086-2.446.172-3.688.36zm0 0" class="colorfafafb svgShape"/><path fill="#f7f7f9" d="M172.746 36.414c.375-.289.684-.531 1.043-.816l1.484.785c-.785 1.586-3.003 2.496-5.132 2.148-2.426-.402-4.063-2.125-4.227-4.445-.148-2.168 1.281-4.086 3.535-4.742 2.27-.657 4.653.101 5.875 1.933l-1.55.848c-1.31-1.223-2.77-1.559-4.16-.98-1.165.48-1.805 1.605-1.712 3.007.137 2.145 2.395 3.235 4.844 2.262zm0 0" class="colorf7f7f9 svgShape"/><path fill="#f8f8f9" d="M147.59 37.043c-1.77 1.578-4.035 1.98-6.078 1.129-1.93-.805-3.024-2.617-2.883-4.77.121-1.855 1.469-3.445 3.426-4.039 2.285-.691 4.629.032 5.988 1.903-.527.285-1.047.57-1.559.847-1.695-1.472-3.707-1.629-5.015-.425-1.188 1.097-1.223 3.117-.07 4.257 1.292 1.278 3.226 1.16 5.09-.34l1.554.82-.453.618zm0 0" class="colorf8f8f9 svgShape"/><path fill="#f7f7f8" d="M70.82 31.684c2.14-3.235 6.64-3.457 8.914-.422-.527.289-1.046.578-1.554.86-1.723-1.454-3.762-1.622-5.024-.442-1.183 1.11-1.172 3.254.028 4.343 1.343 1.215 3.265 1.051 4.988-.437.5.27 1.004.539 1.504.812-.832 1.528-2.766 2.383-4.844 2.168-2.129-.218-3.879-1.613-4.367-3.46-.309-1.157-.188-2.27.355-3.422zm0 0" class="colorf7f7f8 svgShape"/><path fill="#fbfbfb" d="M105.09 31.082c.02.902.254 1.84-.086 2.547-.32.672-1.152 1.297-1.922 1.586-.82.308-1.832.2-2.852.277v2.875h-1.972v-8.926c2.976-.734 5.566-.128 6.832 1.641m-2.567.008c-.742-.055-1.484-.11-2.273-.172v2.84c.535 0 1.008.004 1.484 0 .715-.004 1.309-.215 1.563-.88.273-.702.105-1.304-.774-1.788zm0 0" class="colorfbfbfb svgShape"/><path fill="#f8f8f9" d="M93.555 31.969c.25-.426.457-.793.668-1.157.93-1.585.93-1.585 3.054-1.496-.511.844-.933 1.668-1.476 2.414-1.461 2.004-2.442 4.11-1.793 6.63H91.84c1.082-3.614-1.77-6.07-3.211-8.989 2.074-.242 2.07-.242 2.937 1.324.426.762.868 1.516 1.368 2.383.226-.41.402-.73.62-1.11zm0 0" class="colorf8f8f9 svgShape"/><path fill="#f3f3f5" d="M106.148 29.277h6.844v1.707h-2.555v7.344h-2.05V31.04h-2.785c.168-.66.312-1.207.546-1.762zm0 0" class="colorf3f3f5 svgShape"/><path fill="#fcfcfd" d="M130.34 30.973v5.687h3.742v1.688h-5.644v-9h1.902v1.625zm0 0" class="colorfcfcfd svgShape"/><path fill="#fdfdfe" d="M137.207 33.05v5.294h-1.86v-9.008h1.86v3.715zm0 0" class="colorfdfdfe svgShape"/><path fill="#292c48" d="M29.805 46.164c-2.395 0-4.692-.023-6.989.012-.828.011-1.086-.254-1.066-1 .047-1.942-.016-3.883.031-5.824.016-.723-.199-1.254-.777-1.762-1.563-1.363-3.04-2.805-4.598-4.168-.582-.508-.531-.828.016-1.313a141.558 141.558 0 0 0 4.715-4.328c.34-.328.586-.87.601-1.32.063-2.035.059-4.074.012-6.11-.02-.718.246-.933 1.016-.921 2.195.039 4.39.054 6.582-.016.55-.016 1.21-.273 1.613-.621 1.793-1.547 3.508-3.172 5.453-4.953 1.14 1.11 2.34 2.09 3.297 3.242 1.625 1.957 3.637 2.73 6.305 2.39 1.297-.167 2.64-.003 3.964-.038.684-.016.91.218.899.836-.031 1.972.023 3.945-.031 5.918-.02.769.254 1.316.851 1.84 1.531 1.343 2.992 2.75 4.52 4.1.531.47.504.79-.008 1.25-1.59 1.43-3.168 2.868-4.68 4.36-.36.356-.617.934-.636 1.418a87.809 87.809 0 0 0-.008 5.914c.027.836-.254 1.13-1.172 1.11-2.16-.047-4.32-.063-6.477.015-.586.02-1.285.274-1.71.637-1.524 1.305-2.954 2.7-4.419 4.059-.242.222-.504.43-.855.722-1.746-1.617-3.438-3.207-5.168-4.765-.324-.293-.79-.457-1.281-.684M21.62 29.781c-1.07.887-1.656 1.996-1.512 3.313.27 2.386 2.141 3.48 4.473 4.168-1.281 2.129-1.656 4.187.297 5.972 1.984 1.813 4.3 1.278 6.566.328.235.54.383 1 .625 1.415.91 1.566 2.27 2.617 4.29 2.59 1.949-.028 3.335-.973 4.171-2.575.703-1.351.672-1.297 2.27-.847 3.758 1.046 6.398-1.262 6.168-3.95-.086-.984-.461-1.945-.73-3.023 2.206-.727 4.234-1.82 4.206-4.438-.023-2.586-2.023-3.703-4.398-4.445 1.09-2.004 1.594-3.965-.086-5.727-1.969-2.066-4.371-1.613-6.856-.55-.714-2.282-2.039-4.008-4.789-4.024-2.804-.011-4.109 1.77-4.875 4.035-2.277-1.007-4.53-1.48-6.488.223-2.07 1.8-1.676 3.926-.465 5.926-.988.543-1.875 1.027-2.867 1.61zm0 0" class="color292c48 svgShape"/><path fill="#262a49" d="M117.992 36.828c-2.183-.48-3.21-1.77-2.87-3.484.32-1.614 1.589-2.528 3.39-2.442 1.617.078 2.851 1.188 2.968 2.672.125 1.625-.882 2.887-2.574 3.2-.27.046-.55.042-.914.054zm0 0" class="color262a49 svgShape"/><path fill="#272b4a" d="M86.074 31.602c.45 1.343-.078 2.03-1.492 2.046-.508.008-1.02.004-1.574.004v-2.687c1.066.133 2.187-.38 3.066.637zm0 0" class="color272b4a svgShape"/><path fill="#2f3350" d="M102.602 31.121c.8.453.968 1.055.695 1.758-.254.664-.848.875-1.563.879-.476.004-.949 0-1.484 0v-2.84c.79.062 1.531.117 2.352.203zm0 0" class="color2f3350 svgShape"/><path fill="#d39b56" d="M21.676 29.734c.937-.535 1.824-1.02 2.812-1.562-1.21-2-1.605-4.125.465-5.926 1.957-1.703 4.211-1.23 6.488-.223.766-2.265 2.07-4.046 4.875-4.035 2.75.016 4.075 1.742 4.79 4.024 2.484-1.063 4.886-1.516 6.855.55 1.68 1.762 1.176 3.723.086 5.727 2.375.742 4.375 1.86 4.398 4.445.028 2.618-2 3.711-4.207 4.438.27 1.078.645 2.039.73 3.023.231 2.688-2.41 4.996-6.167 3.95-1.598-.45-1.567-.504-2.27.847-.836 1.602-2.222 2.547-4.172 2.574-2.02.028-3.379-1.023-4.289-2.59-.242-.413-.39-.874-.625-1.413-2.265.949-4.582 1.484-6.566-.329-1.953-1.785-1.578-3.843-.297-5.972-2.332-.688-4.203-1.782-4.473-4.168-.144-1.317.442-2.426 1.567-3.36m25.031 11.86a.778.778 0 0 1 .113-.149s-.023-.004.086-.062c.047-.102.094-.203.242-.399.215-.37.598-.754-.086-1.222.028-.719-.183-1.332-.874-1.73 0 0 .003.019-.04-.075a.876.876 0 0 1-.156-.125s0 .016-.047-.07c-.058-.043-.117-.082-.156-.121 0 0-.004.015-.055-.075a1.198 1.198 0 0 1-.164-.105s-.004.02-.058-.11a20.983 20.983 0 0 1-.989-.456s.004.02-.082-.094c-1.441-.582-2.879-1.18-4.34-1.715-.187-.07-.515.18-.788.27 0 0 .015-.008-.083.035-.042.05-.082.105-.125.144 0 0 .012.004-.136.031-.524 1.032.238 1.707.789 2.446 0 0 0-.016-.016.136.496.97.992 1.942 1.469 2.918 0 0-.004-.02.043.07.055.044.11.083.152.13 0 0 0-.016.07.082.075.035.149.07.282.125.039.023.058.054.11.203l.163.144s.012-.015.078.086c.118.04.235.078.336.121 0 0 .008-.011.04.121 1.261.825 2.503.907 3.292.23 0 0-.02-.003.125.005.16-.14.317-.278.473-.383 0 0-.031-.016.082-.031.055-.043.113-.086.172-.235a.194.194 0 0 1-.004-.093s-.016.004.082-.047m-12.41-20.957s.012 0-.082.05c-.04.055-.078.11-.113.141 0 0 .023.008-.086.07-.043.106-.086.215-.137.309 0 0 .016 0-.117.066-.586.954-1.055 1.915-.254 3.086.062.141.12.286.199.57.625 1.239 1.246 2.481 1.855 3.716 0 0 .012-.012-.007.093 0 .035 0 .07.078.227.445.043 1.215.234 1.285.105.402-.738.64-1.55.98-2.465 1.82-2.55 1.852-3.812.133-6.242-.207-.097-.41-.199-.601-.3 0 0-.008.011-.043-.125-.782-.426-1.547-.555-2.258.125 0 0 .016.007-.133.003a7.94 7.94 0 0 1-.492.387l-.078.04c-.043.05-.086.105-.13.144m-11.5 10.508s.013 0-.081.05c-.04.055-.078.106-.113.145 0 0 .02.008-.122.062-1.03 1.395-.93 2.34.317 2.985 0 0 0-.012.047.074.058.039.117.074.164.105 0 0 .012-.011.031.121 1.535 1.415 3.89 1.282 5.766-.101.867-.328 1.73-.66 2.601-.984.559-.207.907-.532.785-1.27-.421-.2-.843-.398-1.25-.594 0 0-.007.012-.074-.113-1.242-.414-2.488-.824-3.883-1.305-.89-.035-1.777-.07-2.812-.101-.176.129-.348.258-.531.367 0 0 .02.012-.121.008-.168.129-.336.258-.512.37 0 0 .02-.003-.078.04a1.55 1.55 0 0 1-.133.14m3.55-7.648s.012.004-.085.047a.925.925 0 0 1-.125.145s.011.003-.082.05c-.04.055-.075.11-.11.149 0 0 .016.008-.117.062-.73 1.024-.683 2.074.102 2.797 0 0 .008-.012 0 .125.152.207.304.418.437.637 0 0-.012-.02.055.074.074.04.144.078.332.176 1.969.84 3.926 1.71 5.918 2.508.508.203 1.101-.434.867-.926-.836-1.77-1.723-3.516-2.66-5.348a1.994 1.994 0 0 1-.152-.09s-.016.016-.032-.117c-.199-.094-.398-.187-.586-.285 0 0-.004.012-.035-.121-1.363-.89-2.562-.906-3.515-.067 0 0 .011 0-.082.043-.043.051-.086.102-.13.141m8.212 21.66c.054.04.113.078.156.117 0 0 0-.011.07.082.117.036.235.075.344.114 0 0 0-.008.035.125.86.414 1.695.578 2.457-.145 0 0-.02-.008.117-.011.106-.122.211-.243.32-.352 0 0-.015 0 .083-.043a.963.963 0 0 1 .125-.148s-.016 0 .082-.047c.039-.055.078-.106.117-.145 0 0-.016-.004.09-.07.039-.106.082-.215.129-.313 0 0-.012.004.12-.062 1.227-1.38.579-2.754-.058-4.106-.2-.422-.582-.777-.91-1.293-.059-.164-.117-.328-.184-.636-.218-.45-.441-.899-.648-1.352 0 0-.004.016-.04-.129-1.01-.504-1.491-.363-1.859.54-.199.495-.398.988-.593 1.59-.004.034-.008.07-.137.183-.094.36-.188.718-.29 1.066 0 0 .013 0-.093.066-.035.11-.074.22-.113.317 0 0 .012 0-.117.066-.926 1.184-.914 2.637.125 3.75l.039.075c.054.039.11.078.156.12 0 0 .004-.007.012.106.074.09.148.18.207.274 0 0 0-.016.047.07.058.039.113.078.156.12 0 0 .004-.015.055.071m-2.97-3.996c.72-1.55 1.391-3.125 2.184-4.644.29-.551.293-.852-.16-1.325-.492-.515-.941-.379-1.457-.187-.945.355-1.89.715-2.832 1.082-1.398.547-2.851 1.043-3.554 2.434-.532 1.042-.91 2.097-.11 3.203.754 1.039 1.84 1.293 3.09 1.132 1.16-.148 2.031-.765 2.84-1.695m9.758-9.426c-.496.25-1.149.317-1.141 1.063.012.793.7.863 1.25 1.078 1.246.484 2.512.93 3.758 1.414 1.527.594 2.941.34 4.242-.492 1.246-.797 1.563-2.2.816-3.277-.886-1.278-3.183-1.946-4.734-1.368-1.352.504-2.691 1.024-4.191 1.582m1.265-2.445c.575-.219 1.14-.465 1.727-.66 1.2-.395 1.95-1.184 2.394-2.238.805-1.887-.636-3.828-2.632-3.375-1.004.226-2.196.808-2.707 1.566-.989 1.465-1.594 3.152-2.278 4.773-.27.637.356 1.125 1.051.88.777-.27 1.531-.59 2.445-.946m-5.843 1.54c-1.047-.184-1.946.132-2.344.991-.25.54-.246 1.317-.016 1.867.34.82 1.184 1.231 2.192 1.086.976-.144 1.75-.902 1.847-1.699.13-1.062-.316-1.703-1.68-2.246zm0 0" class="colord39b56 svgShape"/><path fill="#282a46" d="M31.543 41.215c-.762.875-1.633 1.492-2.793 1.64-1.25.16-2.336-.093-3.09-1.132-.8-1.106-.422-2.16.11-3.203.703-1.391 2.156-1.887 3.554-2.434.942-.367 1.887-.727 2.832-1.082.516-.191.965-.328 1.457.187.453.473.45.774.16 1.325-.793 1.52-1.464 3.093-2.23 4.699zm0 0" class="color282a46 svgShape"/><path fill="#272a47" d="M41.422 31.71c1.426-.534 2.766-1.054 4.117-1.558 1.55-.578 3.848.09 4.734 1.368.747 1.078.43 2.48-.816 3.277-1.3.832-2.715 1.086-4.242.492-1.246-.484-2.512-.93-3.758-1.414-.55-.215-1.238-.285-1.25-1.078-.008-.746.645-.813 1.215-1.086zm0 0" class="color272a47 svgShape"/><path fill="#272a48" d="M42.54 29.316c-.84.329-1.595.649-2.372.918-.695.246-1.32-.242-1.05-.879.683-1.62 1.288-3.308 2.277-4.773.511-.758 1.703-1.34 2.707-1.566 1.996-.453 3.437 1.488 2.632 3.375-.445 1.054-1.195 1.843-2.394 2.238-.586.195-1.153.441-1.8.687zM38.054 20.5c1.695 2.293 1.664 3.555-.211 6.23-.258.567-.516.989-.653 1.442-.222.726-.699.887-1.433.621-.074-.082-.13-.121-.184-.16 0 0-.011.012-.004-.059-.62-1.312-1.25-2.55-1.879-3.789a4.247 4.247 0 0 1-.199-.543c.121-1.09.262-2.062.403-3.035 0 0-.016 0 .042-.023.102-.137.145-.243.188-.348 0 0-.023-.008.035-.004a.39.39 0 0 0 .149-.195s-.012 0 .043-.008a.508.508 0 0 0 .168-.184s-.016.008.054.004c.239-.133.403-.254.57-.379 0 0-.015-.008.07-.011.794 0 1.5.007 2.208.015 0 0 .008-.012.039.04.219.163.406.277.594.386zm-7.11 3.566c.871 1.758 1.758 3.504 2.594 5.274.234.492-.36 1.129-.867.926-1.992-.797-3.95-1.668-6.008-2.59-.164-.117-.238-.153-.309-.188 0 0 .012.02.016-.05a5.217 5.217 0 0 0-.433-.704s-.008.012-.012-.07c.008-.977.023-1.875.035-2.77 0 0-.016-.007.039-.011.086-.067.117-.13.148-.192 0 0-.011-.003.04-.015a.71.71 0 0 0 .171-.176s-.011-.004.043-.008a.574.574 0 0 0 .168-.18h.07c1.262-.687 2.356-.167 3.465.2 0 0 .004-.012.036.039.21.156.39.262.57.367 0 0 .016-.016.02.031.078.07.144.094.214.117zm1.254 8.407c.114.597-.234.922-.793 1.129-.87.324-1.734.656-2.75 1.027-2 .832-3.836 1.062-5.636-.074 0 0-.012.011-.02-.04-.07-.078-.137-.109-.203-.14 0 0 0 .012-.016-.063-.761-1.007-.574-1.984-.16-2.964 0 0-.02-.008.04-.008a.464.464 0 0 0 .148-.195s-.012 0 .046-.004c.098-.059.133-.121.172-.18 0 0-.02.004.051.004a3.86 3.86 0 0 0 .582-.367s-.02-.012.055-.004c.25-.121.426-.25.601-.38.891.036 1.778.071 2.809.177 1.363.5 2.586.93 3.809 1.359 0 0 .007-.012.043.035.43.262.824.473 1.222.688zm5.461 5.894c.059.164.117.328.2.625.96 1.778 1.773 3.442.812 5.332 0 0 .012-.004-.043.028-.098.132-.14.242-.18.347 0 0 .016.004-.039.004-.094.067-.125.129-.16.192 0 0 .016 0-.04.007-.093.067-.128.125-.167.184 0 0 .016 0-.047.016-.172.125-.281.23-.394.34 0 0 .02.007-.067-.005-.86.004-1.633.012-2.406.024 0 0 0 .008-.035-.04a1.696 1.696 0 0 0-.38-.16l-.003-.042c-.066-.086-.137-.117-.203-.149 0 0-.004.016-.004-.043-.066-.086-.137-.117-.203-.148 0 0 0 .016.008-.047a1.145 1.145 0 0 0-.223-.324s-.004.008-.012-.043a.618.618 0 0 0-.195-.16s.008.015.016-.063c-.649-1.297-.41-2.52-.004-3.738 0 0-.012 0 .039-.031.09-.141.129-.246.168-.352 0 0-.012 0 .047-.031.16-.395.257-.754.355-1.117.004-.032.008-.067.074-.184.317-.504.653-.906.813-1.355.308-.852.816-1.008 1.613-.547 0 0 .004-.016 0 .058.215.524.438.973.66 1.422zm4.164 3.203c-.008-.043-.027-.074-.129-.156-.14-.094-.215-.129-.289-.164 0 0 0 .016-.004-.043a.506.506 0 0 0-.195-.16s.004.02.004-.055a108.39 108.39 0 0 0-1.453-2.996s0 .016.008-.062c-.211-.848-.43-1.621-.649-2.395 0 0-.012-.004.043-.012.094-.062.13-.12.168-.18 0 0-.016.008.074.005.418.05.762.074 1.07.18 1.356.445 2.704.917 4.055 1.382 0 0-.004-.02.024.04.36.214.687.37 1.015.526 0 0 .004-.02.008.032.074.082.145.113.211.144 0 0 .004-.015.008.04.07.085.133.12.2.152v.039a.494.494 0 0 0 .198.164s-.004-.02-.007.054c.793 1.07.84 2.184.613 3.336 0 0 .023.004-.04.008-.085.063-.116.13-.148.196 0 0 .016-.004-.043.007-.09.067-.12.13-.18.22-.03.03-.042.112-.042.112s.031.016-.035.004c-.227.125-.387.258-.551.387l-.067-.012c-1.222.528-2.21-.078-3.238-.347 0 0-.008.011-.039-.036a1.93 1.93 0 0 0-.371-.175s-.012.015-.012-.04a.68.68 0 0 0-.207-.195zm0 0" class="color272a48 svgShape"/><path fill="#2a2c48" d="M36.844 30.855c1.289.516 1.734 1.157 1.605 2.22-.097.796-.87 1.554-1.847 1.698-1.008.145-1.852-.265-2.192-1.086-.23-.55-.234-1.328.016-1.867.398-.86 1.297-1.175 2.418-.965zm0 0" class="color2a2c48 svgShape"/><path fill="#bf9f7d" d="M23.027 34.621c1.793 1.07 3.63.84 5.555.04-1.652 1.308-4.008 1.44-5.555-.04zm0 0" class="colorbf9f7d svgShape"/><path fill="#c5a582" d="M38.738 44.29c.895-1.856.082-3.52-.863-5.235.29.32.672.675.871 1.097.637 1.352 1.285 2.727-.008 4.137zm0 0" class="colorc5a582 svgShape"/><path fill="#ba9c7f" d="M44.484 36.855c-1.308-.406-2.656-.878-4.011-1.324-.309-.105-.653-.129-1.063-.176.176-.09.504-.34.692-.27 1.46.536 2.898 1.134 4.382 1.77zm0 0" class="colorba9c7f svgShape"/><path fill="#bf9f7d" d="M22.55 31.375c-.343.953-.53 1.93.24 2.934-1.24-.567-1.34-1.512-.24-2.934zm0 0" class="colorbf9f7d svgShape"/><path fill="#c2a280" d="M33.828 40.535c-.344 1.188-.582 2.41.074 3.703-1.054-1.031-1.066-2.484-.074-3.703zm0 0" class="colorc2a280 svgShape"/><path fill="#bf9f7d" d="M35.77 28.844c.722.215 1.199.054 1.421-.672.137-.453.395-.875.63-1.375-.262.723-.5 1.535-.903 2.273-.07.13-.84-.062-1.27-.164.051-.062.086-.062.122-.062zm0 0" class="colorbf9f7d svgShape"/><path fill="#b79a7e" d="M33.7 24.86a93.695 93.695 0 0 1 1.878 3.718A102.473 102.473 0 0 1 33.7 24.86zm3.28 11.953c-.777-.387-1.285-.231-1.593.62-.16.45-.496.852-.817 1.305.137-.468.336-.96.535-1.457.368-.902.848-1.043 1.875-.468zm0 0" class="colorb79a7e svgShape"/><path fill="#ba9c7f" d="M30.902 31.688a83.677 83.677 0 0 1-3.703-1.262c1.18.375 2.426.785 3.703 1.262zm0 0" class="colorba9c7f svgShape"/><path fill="#bf9f7d" d="M30.09 23.445c-1.094-.3-2.188-.82-3.45-.125.872-.847 2.07-.832 3.45.125zm0 0" class="colorbf9f7d svgShape"/><path fill="#c5a582" d="M33.828 21.242c-.074.938-.215 1.91-.371 2.95-.75-1.005-.281-1.965.371-2.95zm0 0" class="colorc5a582 svgShape"/><path fill="#ba9c7f" d="M39.75 38.07c.492.899.977 1.871 1.473 2.918a53.21 53.21 0 0 1-1.473-2.918zm0 0" class="colorba9c7f svgShape"/><path fill="#bd9e7d" d="M42.469 42.082c1.011.203 2 .809 3.215.273-.696.7-1.938.618-3.215-.273zm0 0" class="colorbd9e7d svgShape"/><path fill="#bf9f7d" d="M25.895 23.922c.054.867.039 1.765.039 2.738-.79-.637-.836-1.687-.04-2.738zm0 0" class="colorbf9f7d svgShape"/><path fill="#ba9c7f" d="M39.043 35.555c.293.758.512 1.53.73 2.375-.566-.657-1.328-1.332-.73-2.375zm7.809 5.86c.171-1.126.125-2.24-.676-3.306.703.32.914.934.883 1.813-.004.492-.008.824-.012 1.152a1.508 1.508 0 0 1-.195.34zm0 0" class="colorba9c7f svgShape"/><path fill="#c2a280" d="M35.148 45.527c.754-.078 1.528-.086 2.387-.097-.676.742-1.512.578-2.387.097zm0 0" class="colorc2a280 svgShape"/><path fill="#bd9e7d" d="M37.406 20.008c-.691.058-1.398.05-2.187.055.62-.68 1.386-.551 2.187-.055zm0 0" class="colorbd9e7d svgShape"/><path fill="#b79a7e" d="M37.656 38.293a12.33 12.33 0 0 1-.664-1.344c.219.375.442.824.664 1.344zm0 0" class="colorb79a7e svgShape"/><path fill="#bd9e7d" d="M47.098 41.031c-.047-.285-.043-.617-.035-1.031.683.23.3.613.035 1.031zm0 0" class="colorbd9e7d svgShape"/><path fill="#ba9c7f" d="M32.195 32.402c-.394-.144-.789-.355-1.226-.617.379.149.8.348 1.226.617zm0 0" class="colorba9c7f svgShape"/><path fill="#c2a280" d="M34.438 39.016a4.29 4.29 0 0 1-.29 1.078c.04-.32.133-.68.29-1.078zm0 0" class="colorc2a280 svgShape"/><path fill="#ba9c7f" d="M45.54 37.414c-.302-.09-.63-.246-.997-.457.297.098.633.246.996.457zm0 0" class="colorba9c7f svgShape"/><path fill="#bd9e7d" d="M35.07 20.066c-.093.13-.258.25-.488.387.094-.121.254-.254.488-.387zm0 0" class="colorbd9e7d svgShape"/><path fill="#bf9f7d" d="M25.934 26.805c.152.14.296.351.449.629a2.644 2.644 0 0 1-.45-.63zm-1.688 3.41c-.105.129-.281.258-.527.387.105-.125.277-.254.527-.387zm6.457-6.363c-.172-.04-.351-.145-.57-.297.164.043.363.136.57.297zm-7.113 6.742c-.102.129-.27.25-.508.379.102-.121.27-.25.508-.38zm0 0" class="colorbf9f7d svgShape"/><path fill="#bd9e7d" d="M45.828 42.379c.094-.133.254-.266.484-.406-.093.132-.25.27-.484.406zm-7.785-21.945c-.176-.043-.363-.157-.59-.317.168.047.371.149.59.317zm0 0" class="colorbd9e7d svgShape"/><path fill="#c2a280" d="M37.672 45.438c.043-.106.152-.211.324-.34-.047.097-.152.218-.324.34zm-3.625-5.286c.012.075-.027.18-.117.325-.012-.07.027-.18.117-.325zm4.453 4.516c-.012-.074.031-.184.125-.324.012.074-.031.183-.125.324zm-4.41-.102c.074.028.152.118.226.266-.074-.031-.148-.121-.226-.266zm0 0" class="colorc2a280 svgShape"/><path fill="#c5a582" d="M34.07 20.867c.012.074-.03.18-.133.32-.007-.074.036-.183.133-.32zm0 0" class="colorc5a582 svgShape"/><path fill="#c2a280" d="M34.75 45.309c.078-.012.195.027.348.113-.078.008-.196-.031-.348-.113zm0 0" class="colorc2a280 svgShape"/><path fill="#bd9e7d" d="M42.074 41.855c.082-.007.196.036.348.122-.078.007-.195-.032-.348-.122zm0 0" class="colorbd9e7d svgShape"/><path fill="#bf9f7d" d="M30.914 24.031c-.039.012-.105-.011-.191-.09.039-.015.097.02.191.09zm0 0" class="colorbf9f7d svgShape"/><path fill="#bd9e7d" d="M46.402 41.977c-.058.007-.047-.075.035-.106.122-.031.153-.031.188-.031a1.019 1.019 0 0 1-.223.137zm0 0" class="colorbd9e7d svgShape"/><path fill="#c2a280" d="M38.297 44.871c-.012-.039.02-.101.113-.176.016.047-.023.098-.113.176zm-4.395-.52c.04-.011.102.028.176.114-.043.008-.098-.031-.176-.113zm0 0" class="colorc2a280 svgShape"/><path fill="#ba9c7f" d="M41.23 41.09c.043-.008.106.027.18.117-.047.012-.101-.027-.18-.117zm0 0" class="colorba9c7f svgShape"/><path fill="#c2a280" d="M34.324 44.922c.043-.012.114.02.188.105-.051.016-.106-.023-.188-.105zm3.77.14c-.012-.035.023-.093.113-.164.016.036-.027.09-.113.164zm-3.563.051c.043-.011.114.02.188.106-.047.015-.106-.024-.188-.106zm0 0" class="colorc2a280 svgShape"/><path fill="#bf9f7d" d="M26.39 27.535c.036-.012.11.024.215.11-.039.015-.109-.024-.214-.11zm0 0" class="colorbf9f7d svgShape"/><path fill="#ba9c7f" d="M45.969 37.805c-.043.011-.106-.024-.184-.11.043-.015.102.024.184.11zm0 0" class="colorba9c7f svgShape"/><path fill="#bf9f7d" d="M22.82 34.418c.043-.012.11.02.188.105-.047.012-.106-.023-.188-.105zm0 0" class="colorbf9f7d svgShape"/><path fill="#ba9c7f" d="M39.277 35.371c.012.035-.023.094-.117.164-.012-.039.028-.094.117-.164zm0 0" class="colorba9c7f svgShape"/><path fill="#bf9f7d" d="M26.313 23.523c.007.032-.036.086-.125.157-.008-.032.035-.082.125-.157zm-3.551 7.645c.015.043-.016.105-.106.18-.02-.047.02-.098.106-.18zm0 0" class="colorbf9f7d svgShape"/><path fill="#c5a582" d="M34.262 20.66c.02.043-.012.11-.102.184-.023-.047.016-.102.102-.184zm.21-.191c.012.035-.027.097-.12.168-.012-.04.03-.094.12-.168zm0 0" class="colorc5a582 svgShape"/><path fill="#b79a7e" d="M35.758 28.793c-.024.05-.059.05-.149.05-.054-.034-.054-.07-.047-.155.067-.016.122.023.196.105zm0 0" class="colorb79a7e svgShape"/><path fill="#ba9c7f" d="M45.762 37.613c-.043.012-.114-.02-.196-.101.047-.016.106.02.196.101zm.867 4.172c-.04.055-.07.055-.16.055-.024-.059.008-.121.09-.192.058.02.062.051.07.137zm-.461-3.781c-.043.012-.11-.024-.184-.113.047-.016.106.027.184.113zm0 0" class="colorba9c7f svgShape"/><path fill="#bf9f7d" d="M22.977 30.98c.011.04-.024.102-.122.168-.015-.043.032-.093.122-.168zm3.125-7.265c.015.039-.016.101-.106.176-.016-.043.02-.098.106-.176zm.421-.383c.012.035-.027.094-.12.164-.012-.039.03-.09.12-.164zm0 0" class="colorbf9f7d svgShape"/><path fill="#ba9c7f" d="M41.441 41.297c.04-.012.114.023.223.105-.039.016-.113-.02-.223-.105zm5.22.32c-.02-.039.01-.105.097-.18.023.043-.016.102-.098.18zm0 0" class="colorba9c7f svgShape"/><path fill="#bd9e7d" d="M41.848 41.625c.047-.008.113.04.191.148-.05.008-.11-.043-.191-.148zm0 0" class="colorbd9e7d svgShape"/></svg></g></svg>